<svg xmlns="http://www.w3.org/2000/svg" xmlns:xlink="http://www.w3.org/1999/xlink" viewBox="0 0 570 571.34"><path fill="#D2E3FC" d="M426.6 135.25H190.98c-14.05 0-25.43 11.39-25.43 25.43v333.87c0 14.05 11.39 25.43 25.43 25.43h235.64c14.05 0 25.43-11.39 25.43-25.43V160.7c0-14.06-11.39-25.45-25.45-25.45z"/><path fill="#E8F0FE" d="M356.78 435.6H121.14c-14.05 0-25.43-11.39-25.43-25.43V76.3c0-14.05 11.39-25.43 25.43-25.43h176.69l84.38 84.38v274.92c.01 14.04-11.38 25.43-25.43 25.43z"/><path fill="#1A73E8" d="M382.22 135.25h-58.93c-14.05 0-25.45-11.39-25.45-25.45V50.87l84.38 84.38z"/><path d="M169.13 237.7H308.8m-139.67 31.64H308.8m-139.67 31.64H308.8m-139.67 31.63h84.64" fill="none" stroke="#FFF" stroke-width="11" stroke-linecap="round" stroke-miterlimit="10"/><path fill="none" stroke="#D2E3FC" stroke-width="8" stroke-linecap="round" stroke-linejoin="round" stroke-miterlimit="10" d="M242.67 536.84h202.39c14.04 0 25.43-11.38 25.43-25.43V356.17M197.31 536.84h29.84m-56.83 0h12.07"/><path fill="#E8F0FE" d="M489.23 64.684l30.919 3.772-29.933 245.341-30.92-3.772z"/><defs><path id="a" d="M474.78 311.91l15.46 1.89-9.8 16.01-9.8 16.01-5.66-17.9-5.66-17.89z"/></defs><clipPath id="b"><use xlink:href="#a" overflow="visible"/></clipPath><path clip-path="url(#b)" fill="#D2E3FC" d="M474.78 311.91l15.46 1.89-9.8 16.01-9.8 16.01-5.66-17.9-5.66-17.89z"/><circle clip-path="url(#b)" fill="#1A73E8" cx="470.64" cy="345.82" r="18.01"/><path fill="#D2E3FC" d="M510.34 148.99l-30.92-3.77 11.84-97.03c1.04-8.54 8.81-14.61 17.34-13.57 8.54 1.04 14.61 8.81 13.57 17.34l-11.83 97.03zm-43.242 97.084l30.92 3.772-7.15 58.603-30.92-3.772zM504.73 195l23.18-69.35c2.99-8.95-2.97-18.39-12.34-19.53L504.73 195z"/><path fill="#E8F0FE" d="M87.38 349.285H56.23v-247.17h31.15z"/><defs><path id="c" d="M71.81 349.28H56.23l7.79 17.08 7.79 17.08 7.78-17.08 7.79-17.08z"/></defs><clipPath id="d"><use xlink:href="#c" overflow="visible"/></clipPath><path clip-path="url(#d)" fill="#D2E3FC" d="M71.81 349.28H56.23l7.79 17.08 7.79 17.08 7.78-17.08 7.79-17.08z"/><circle clip-path="url(#d)" fill="#1A73E8" cx="71.81" cy="383.44" r="18.01"/><path fill="#D2E3FC" d="M56.23 183.25h31.15V85.5c0-8.6-6.97-15.57-15.57-15.57-8.6 0-15.57 6.97-15.57 15.57l-.01 97.75zm31.15 160.645H56.23v-59.04h31.15zM56.23 229.6l-14.61-71.65c-1.88-9.24 5.18-17.89 14.61-17.89v89.54z"/></svg>
